<svg xmlns="http://www.w3.org/2000/svg" version="1.1" xmlns:xlink="http://www.w3.org/1999/xlink" xmlns:svgjs="http://svgjs.com/svgjs" width="500" height="1000" preserveAspectRatio="none" viewBox="0 0 500 1000"><g mask="url(&quot;#SvgjsMask1038&quot;)" fill="none"><rect width="500" height="1000" x="0" y="0" fill="rgba(34, 24, 28, 1)"></rect><path d="M209.52 365.73L217.64 365.73L217.64 373.85L209.52 373.85z" stroke="rgba(252, 243, 0, 1)"></path><path d="M32.75 302.99L44.62 302.99L44.62 346.32L32.75 346.32z" stroke="rgba(255, 10, 84, 1)"></path><path d="M42.57 444.27L72.41 444.27L72.41 466.02L42.57 466.02z" stroke="rgba(255, 10, 84, 1)"></path><path d="M452.2 66.49L478.94 66.49L478.94 85.16L452.2 85.16z" stroke="rgba(252, 243, 0, 1)"></path><path d="M116.35 927.19a38.38 38.38 0 1 0-73.17-23.19z" stroke="rgba(243, 244, 246, 1)"></path><path d="M368.64 48.11 a34.16 34.16 0 1 0 68.32 0 a34.16 34.16 0 1 0 -68.32 0z" fill="rgba(252, 243, 0, 1)"></path><path d="M497.28 101.45L531.29 101.45L531.29 135.46L497.28 135.46z" fill="rgba(255, 10, 84, 1)"></path><path d="M205.86 42.32L215.86 42.32L215.86 52.32L205.86 52.32z" stroke="rgba(243, 244, 246, 1)"></path><path d="M425.14 822.79L457.97 822.79L457.97 855.12L425.14 855.12z" fill="rgba(252, 243, 0, 1)"></path><path d="M366.84 299.12L392.96 299.12L392.96 330.89L366.84 330.89z" fill="rgba(255, 10, 84, 1)"></path><path d="M292.3 690.66L322.31 690.66L322.31 694.57L292.3 694.57z" stroke="rgba(252, 243, 0, 1)"></path><path d="M256.5 750.75L290.16 750.75L290.16 784.41L256.5 784.41z" stroke="rgba(252, 243, 0, 1)"></path><path d="M402.38 416.21a30.38 30.38 0 1 0 18.32-57.93z" fill="rgba(243, 244, 246, 1)"></path><path d="M9.8 447.43L48.61 447.43L48.61 452.67L9.8 452.67z" fill="rgba(255, 10, 84, 1)"></path><path d="M291.9 994.77 a6.86 6.86 0 1 0 13.72 0 a6.86 6.86 0 1 0 -13.72 0z" fill="rgba(252, 243, 0, 1)"></path><path d="M413.6 930.51a40.55 40.55 0 1 0 78.94-18.6z" stroke="rgba(255, 10, 84, 1)"></path><path d="M459.91 131.22a19.68 19.68 0 1 0 34.8 18.4z" stroke="rgba(243, 244, 246, 1)"></path><path d="M191.58 838.62 a49.96 49.96 0 1 0 99.92 0 a49.96 49.96 0 1 0 -99.92 0z" stroke="rgba(243, 244, 246, 1)"></path><path d="M233.12 826.3L270.9 826.3L270.9 829.31L233.12 829.31z" fill="rgba(252, 243, 0, 1)"></path><path d="M348.53 952.94L370.8 952.94L370.8 987.7L348.53 987.7z" stroke="rgba(252, 243, 0, 1)"></path><path d="M206.1 246.48 a6.54 6.54 0 1 0 13.08 0 a6.54 6.54 0 1 0 -13.08 0z" fill="rgba(243, 244, 246, 1)"></path><path d="M298.82 598.08a23.12 23.12 0 1 0-1.75 46.21z" fill="rgba(252, 243, 0, 1)"></path><path d="M109.67 803.15 a42.19 42.19 0 1 0 84.38 0 a42.19 42.19 0 1 0 -84.38 0z" stroke="rgba(255, 10, 84, 1)"></path><path d="M438.7 936.95a20.24 20.24 0 1 0-9.2 39.43z" fill="rgba(243, 244, 246, 1)"></path><path d="M66.45 444.57L82.59 444.57L82.59 460.71L66.45 460.71z" stroke="rgba(252, 243, 0, 1)"></path></g><defs><mask id="SvgjsMask1038"><rect width="500" height="1000" fill="#ffffff"></rect></mask></defs></svg>